<?xml version="1.0" encoding="UTF-8"?>
<svg width="72px" height="112px" viewBox="0 0 72 112" version="1.1" xmlns="http://www.w3.org/2000/svg" xmlns:xlink="http://www.w3.org/1999/xlink">
    <title>2h</title>
    <g id="Page-1" stroke="none" stroke-width="1" fill="none" fill-rule="evenodd">
        <g id="Artboard" transform="translate(-120.000000, -160.000000)">
            <g id="card" transform="translate(120.000000, 160.000000)">
                <rect id="Rectangle" fill-opacity="0" fill="#FFFFFF" fill-rule="evenodd" x="1" y="0" width="71" height="112"></rect>
                <g id="rank/deuce" transform="translate(16.000000, 12.000000)" fill="#FF6464" fill-rule="nonzero">
                    <path d="M34.7775,39.0625 L34.7775,31.53 L25.865,31.53 C23.45,31.53 20.115,31.645 18.2175,31.76 L18.2175,31.7025 C28.51,25.78 34.3175,20.145 34.3175,12.7275 C34.3175,6.805 30.0625,0.5375 20,0.5375 C11.49,0.5375 5.28,5.08 5.1075,13.475 L13.56,16.0625 C13.675,11.0025 15.745,8.3 19.3675,8.3 C22.76,8.3 24.485,10.485 24.485,13.4175 C24.485,18.765 19.31,24.63 6.315,32.7375 L6.315,39.0625 L34.7775,39.0625 Z" id="Shape"></path>
                </g>
                <g id="suit/heart" transform="translate(14.000000, 60.000000)" fill-rule="nonzero">
                    <path d="M0,14.2385547 C0,7.53671875 5.40151563,2.10400781 12.0645078,2.10400781 C15.367,2.10400781 18.3571094,3.44059375 20.5345937,5.60364063 C21.3419766,6.40569531 22.6579375,6.40569531 23.4654063,5.60364063 C25.6428047,3.44059375 28.6329141,2.10400781 31.9354063,2.10400781 C38.5984844,2.10400781 44,7.53671875 44,14.2385547 L44,14.2385547 C44,26.77125 27.8619687,38.1723203 23.2295078,41.18675 C22.4806484,41.6741016 21.5193516,41.6741016 20.7704922,41.18675 C16.1380313,38.1722344 0,26.77125 0,14.2385547" id="Path" fill="#FF6464"></path>
                    <path d="M16.9710234,3.16267188 C15.4711562,2.48814844 13.8141953,2.10400781 12.0645078,2.10400781 C5.40151563,2.10400781 0,7.53671875 0,14.2385547 C0,26.7711641 16.1380313,38.1721484 20.7705781,41.18675 C21.1450938,41.4304688 21.5725469,41.5522422 22,41.5522422 C5.51297656,19.0470156 11.3793281,6.45304688 16.9710234,3.16267188 Z" id="Path" fill="#D2555A"></path>
                </g>
            </g>
        </g>
    </g>
</svg>