<?xml version="1.0" encoding="UTF-8"?>
<svg width="72px" height="112px" viewBox="0 0 72 112" version="1.1" xmlns="http://www.w3.org/2000/svg" xmlns:xlink="http://www.w3.org/1999/xlink">
    <title>3d</title>
    <g id="Page-1" stroke="none" stroke-width="1" fill="none" fill-rule="evenodd">
        <g id="Artboard" transform="translate(-208.000000, -288.000000)">
            <g id="card" transform="translate(208.000000, 288.000000)">
                <rect id="Rectangle" fill-opacity="0" fill="#FFFFFF" fill-rule="evenodd" x="1" y="0" width="71" height="112"></rect>
                <g id="rank/three" transform="translate(16.000000, 12.000000)" fill="#54A0FF" fill-rule="nonzero">
                    <path d="M19.68375,39.6375 C28.25125,39.6375 34.40375,35.2675 34.40375,28.7125 C34.40375,21.985 29.17125,20.0875 26.52625,20.0875 L26.52625,19.915 C28.71125,19.915 33.65625,17.5575 33.65625,11.175 C33.65625,4.735 28.76875,0.5375 20.14375,0.5375 C12.78375,0.5375 6.91875,3.2975 5.59625,10.37 L14.27875,13.3025 C14.62375,9.68 16.63625,8.185 19.56875,8.185 C22.44375,8.185 24.11125,9.7375 24.05375,12.67 C24.05375,15.6025 22.38625,17.04 18.76375,17.04 L17.09625,17.04 L17.09625,23.3075 L19.22375,23.3075 C23.07625,23.3075 24.80125,24.4575 24.85875,27.39 C24.91625,30.3225 22.90375,31.99 19.56875,31.99 C16.17625,31.99 14.10625,30.4375 13.70375,26.355 L4.73375,30.2075 C6.86125,36.8775 11.69125,39.6375 19.68375,39.6375 Z" id="Shape"></path>
                </g>
                <g id="suit/diamond-4c" transform="translate(14.000000, 60.000000)" fill-rule="nonzero">
                    <path d="M23.2338906,0.608695313 C28.5126875,7.43651562 36.5615938,15.4867109 43.3882109,20.7661953 C44.1995469,21.3937109 44.1995469,22.6062031 43.3882109,23.2336328 C36.5616797,28.5131172 28.5126016,36.5634844 23.2338906,43.3911328 C22.606375,44.2027266 21.3935391,44.2027266 20.7661094,43.3911328 C15.4873125,36.5634844 7.43832031,28.5132891 0.611703125,23.2337188 C-0.199632813,22.6062031 -0.199632813,21.3937109 0.611703125,20.7662813 C7.43832031,15.4867969 15.4873125,7.43651563 20.7660234,0.60878125 C21.3935391,-0.202898437 22.606375,-0.202898437 23.2338906,0.608695313 Z" id="Path" fill="#54A0FF"></path>
                    <path d="M21.8101641,43.3913047 C19.3755547,36.5635703 15.6633125,28.5132891 12.5148203,23.2338047 C12.1405625,22.6062891 12.1405625,21.3937969 12.5148203,20.7663672 C15.6633125,15.4867969 19.3755547,7.43651563 21.8101641,0.608867187 C21.9311641,0.269585937 22.1778906,0.120570312 22.3897266,0.054484375 C21.8135156,-0.09453125 21.1695,0.087140625 20.7660234,0.608867187 C15.4873125,7.43642969 7.43832031,15.4867109 0.611703125,20.7661953 C-0.199632813,21.3937109 -0.199632813,22.6061172 0.611703125,23.2336328 C7.43823438,28.5131172 15.4873125,36.5634844 20.7660234,43.3911328 C21.1693281,43.9127734 21.8134297,44.0945313 22.3897266,43.9455156 C22.1778047,43.8795156 21.9310781,43.7305 21.8101641,43.3913047 Z" id="Path" fill="#2E86DE"></path>
                </g>
            </g>
        </g>
    </g>
</svg>