<?xml version="1.0" encoding="UTF-8"?>
<svg width="72px" height="112px" viewBox="0 0 72 112" version="1.1" xmlns="http://www.w3.org/2000/svg" xmlns:xlink="http://www.w3.org/1999/xlink">
    <title>3h</title>
    <g id="Page-1" stroke="none" stroke-width="1" fill="none" fill-rule="evenodd">
        <g id="Artboard" transform="translate(-208.000000, -160.000000)">
            <g id="card" transform="translate(208.000000, 160.000000)">
                <rect id="Rectangle" fill-opacity="0" fill="#FFFFFF" fill-rule="evenodd" x="1" y="0" width="71" height="112"></rect>
                <g id="rank/three" transform="translate(16.000000, 12.000000)" fill="#FF6464" fill-rule="nonzero">
                    <path d="M19.68375,39.6375 C28.25125,39.6375 34.40375,35.2675 34.40375,28.7125 C34.40375,21.985 29.17125,20.0875 26.52625,20.0875 L26.52625,19.915 C28.71125,19.915 33.65625,17.5575 33.65625,11.175 C33.65625,4.735 28.76875,0.5375 20.14375,0.5375 C12.78375,0.5375 6.91875,3.2975 5.59625,10.37 L14.27875,13.3025 C14.62375,9.68 16.63625,8.185 19.56875,8.185 C22.44375,8.185 24.11125,9.7375 24.05375,12.67 C24.05375,15.6025 22.38625,17.04 18.76375,17.04 L17.09625,17.04 L17.09625,23.3075 L19.22375,23.3075 C23.07625,23.3075 24.80125,24.4575 24.85875,27.39 C24.91625,30.3225 22.90375,31.99 19.56875,31.99 C16.17625,31.99 14.10625,30.4375 13.70375,26.355 L4.73375,30.2075 C6.86125,36.8775 11.69125,39.6375 19.68375,39.6375 Z" id="Shape"></path>
                </g>
                <g id="suit/heart" transform="translate(14.000000, 60.000000)" fill-rule="nonzero">
                    <path d="M0,14.2385547 C0,7.53671875 5.40151563,2.10400781 12.0645078,2.10400781 C15.367,2.10400781 18.3571094,3.44059375 20.5345937,5.60364063 C21.3419766,6.40569531 22.6579375,6.40569531 23.4654063,5.60364063 C25.6428047,3.44059375 28.6329141,2.10400781 31.9354063,2.10400781 C38.5984844,2.10400781 44,7.53671875 44,14.2385547 L44,14.2385547 C44,26.77125 27.8619687,38.1723203 23.2295078,41.18675 C22.4806484,41.6741016 21.5193516,41.6741016 20.7704922,41.18675 C16.1380313,38.1722344 0,26.77125 0,14.2385547" id="Path" fill="#FF6464"></path>
                    <path d="M16.9710234,3.16267188 C15.4711562,2.48814844 13.8141953,2.10400781 12.0645078,2.10400781 C5.40151563,2.10400781 0,7.53671875 0,14.2385547 C0,26.7711641 16.1380313,38.1721484 20.7705781,41.18675 C21.1450938,41.4304688 21.5725469,41.5522422 22,41.5522422 C5.51297656,19.0470156 11.3793281,6.45304688 16.9710234,3.16267188 Z" id="Path" fill="#D2555A"></path>
                </g>
            </g>
        </g>
    </g>
</svg>