<?xml version="1.0" encoding="UTF-8"?>
<svg width="72px" height="112px" viewBox="0 0 72 112" version="1.1" xmlns="http://www.w3.org/2000/svg" xmlns:xlink="http://www.w3.org/1999/xlink">
    <title>3s</title>
    <g id="Page-1" stroke="none" stroke-width="1" fill="none" fill-rule="evenodd">
        <g id="Artboard" transform="translate(-208.000000, -32.000000)">
            <g id="card" transform="translate(208.000000, 32.000000)">
                <rect id="Rectangle" fill-opacity="0" fill="#FFFFFF" fill-rule="evenodd" x="1" y="0" width="71" height="112"></rect>
                <g id="rank/three" transform="translate(16.000000, 12.000000)" fill="#515262" fill-rule="nonzero">
                    <path d="M19.68375,39.6375 C28.25125,39.6375 34.40375,35.2675 34.40375,28.7125 C34.40375,21.985 29.17125,20.0875 26.52625,20.0875 L26.52625,19.915 C28.71125,19.915 33.65625,17.5575 33.65625,11.175 C33.65625,4.735 28.76875,0.5375 20.14375,0.5375 C12.78375,0.5375 6.91875,3.2975 5.59625,10.37 L14.27875,13.3025 C14.62375,9.68 16.63625,8.185 19.56875,8.185 C22.44375,8.185 24.11125,9.7375 24.05375,12.67 C24.05375,15.6025 22.38625,17.04 18.76375,17.04 L17.09625,17.04 L17.09625,23.3075 L19.22375,23.3075 C23.07625,23.3075 24.80125,24.4575 24.85875,27.39 C24.91625,30.3225 22.90375,31.99 19.56875,31.99 C16.17625,31.99 14.10625,30.4375 13.70375,26.355 L4.73375,30.2075 C6.86125,36.8775 11.69125,39.6375 19.68375,39.6375 Z" id="Shape"></path>
                </g>
                <g id="suit/spade" transform="translate(14.000000, 60.000000)" fill-rule="nonzero">
                    <path d="M22.6708285,0.225403509 C22.1783372,-0.0750487329 21.5696277,-0.0750487329 21.0771365,0.225403509 C17.3057446,2.52609747 1.43117934,12.9190175 1.43117934,24.8506511 C1.43117934,31.0519064 6.45035283,36.0789708 12.6418304,36.0789708 C14.6683177,36.0789708 16.5676082,35.5390487 18.2068441,34.5960078 C18.6768635,34.325575 19.226306,34.8036569 19.0419864,35.3173333 C18.1674756,37.7534581 16.9293002,40.0132398 15.3915302,42.0283197 C14.8042632,42.7979337 15.3682865,43.9141442 16.3301111,43.9141442 L27.5366452,43.9141442 C28.4990702,43.9141442 29.0617212,42.7976764 28.4741969,42.0275478 C26.9541813,40.0351969 25.7268129,37.8038051 24.8541891,35.3993294 C24.6688402,34.8885692 25.2106491,34.4097154 25.6821267,34.6725146 C27.28877,35.5674386 29.1368558,36.0789708 31.106306,36.0789708 C37.2976979,36.0789708 42.3169571,31.0519064 42.3169571,24.8506511 C42.3169571,12.9190175 26.4422203,2.52609747 22.6708285,0.225403509 Z" id="Path" fill="#515262"></path>
                    <path d="M18.5997563,34.5335673 C20.4543606,34.5335673 20.4858382,36.2481949 19.7609103,42.274308 C19.6885205,42.8764133 19.7221423,43.9143158 20.5680916,43.9143158 L20.5680916,43.9143158 L16.3300253,43.9143158 C15.3682008,43.9143158 14.8041774,42.7981053 15.3914444,42.028577 C16.9291287,40.0133255 18.1673899,37.7535439 19.0419006,35.3174191 C19.1748441,34.9471501 18.9249103,34.5997817 18.5997563,34.5335673 Z M21.8282837,0.0108391813 L21.9843255,0.0150955166 C16.4794366,7.19284211 4.64909747,28.1088811 17.2443333,35.0830097 C15.8399357,35.719423 14.2839825,36.0789708 12.6418304,36.0789708 C6.45035283,36.0789708 1.43117934,31.0519064 1.43117934,24.8506511 C1.43117934,12.9190175 17.3057446,2.5260117 21.077308,0.225317739 C21.3566608,0.0547212476 21.6725517,-0.00789083821 21.9843255,0.0150955166 Z" id="Combined-Shape" fill="#464655"></path>
                </g>
            </g>
        </g>
    </g>
</svg>