<?xml version="1.0" encoding="UTF-8"?>
<svg width="72px" height="112px" viewBox="0 0 72 112" version="1.1" xmlns="http://www.w3.org/2000/svg" xmlns:xlink="http://www.w3.org/1999/xlink">
    <title>5d</title>
    <g id="Page-1" stroke="none" stroke-width="1" fill="none" fill-rule="evenodd">
        <g id="Artboard" transform="translate(-384.000000, -288.000000)">
            <g id="card" transform="translate(384.000000, 288.000000)">
                <rect id="Rectangle" fill-opacity="0" fill="#FFFFFF" fill-rule="evenodd" x="1" y="0" width="71" height="112"></rect>
                <g id="rank/five" transform="translate(16.000000, 12.000000)" fill="#54A0FF" fill-rule="nonzero">
                    <path d="M19.79875,39.6375 C27.90625,39.6375 34.57625,35.3825 34.57625,26.0675 C34.57625,19.3975 30.14875,14.5675 22.67375,14.5675 C19.28125,14.5675 16.40625,15.545 14.85375,17.27 L14.79625,17.27 C14.85375,17.0975 14.96875,16.6375 15.08375,15.89 L15.94625,8.76 L32.44875,8.76 L32.44875,1.1125 L8.75875,1.1125 L6.34375,22.56 L13.81875,23.6525 C15.14125,22.1 17.26875,21.41 19.85625,21.41 C23.70875,21.41 25.60625,23.365 25.66375,26.7575 C25.66375,30.3225 23.36375,32.1625 19.85625,32.1625 C15.77375,32.1625 14.33625,30.265 13.64625,27.1025 L4.96375,32.0475 C8.29875,37.5675 13.07125,39.6375 19.79875,39.6375 Z" id="Shape"></path>
                </g>
                <g id="suit/diamond-4c" transform="translate(14.000000, 60.000000)" fill-rule="nonzero">
                    <path d="M23.2338906,0.608695313 C28.5126875,7.43651562 36.5615938,15.4867109 43.3882109,20.7661953 C44.1995469,21.3937109 44.1995469,22.6062031 43.3882109,23.2336328 C36.5616797,28.5131172 28.5126016,36.5634844 23.2338906,43.3911328 C22.606375,44.2027266 21.3935391,44.2027266 20.7661094,43.3911328 C15.4873125,36.5634844 7.43832031,28.5132891 0.611703125,23.2337188 C-0.199632813,22.6062031 -0.199632813,21.3937109 0.611703125,20.7662813 C7.43832031,15.4867969 15.4873125,7.43651563 20.7660234,0.60878125 C21.3935391,-0.202898437 22.606375,-0.202898437 23.2338906,0.608695313 Z" id="Path" fill="#54A0FF"></path>
                    <path d="M21.8101641,43.3913047 C19.3755547,36.5635703 15.6633125,28.5132891 12.5148203,23.2338047 C12.1405625,22.6062891 12.1405625,21.3937969 12.5148203,20.7663672 C15.6633125,15.4867969 19.3755547,7.43651563 21.8101641,0.608867187 C21.9311641,0.269585937 22.1778906,0.120570312 22.3897266,0.054484375 C21.8135156,-0.09453125 21.1695,0.087140625 20.7660234,0.608867187 C15.4873125,7.43642969 7.43832031,15.4867109 0.611703125,20.7661953 C-0.199632813,21.3937109 -0.199632813,22.6061172 0.611703125,23.2336328 C7.43823438,28.5131172 15.4873125,36.5634844 20.7660234,43.3911328 C21.1693281,43.9127734 21.8134297,44.0945313 22.3897266,43.9455156 C22.1778047,43.8795156 21.9310781,43.7305 21.8101641,43.3913047 Z" id="Path" fill="#2E86DE"></path>
                </g>
            </g>
        </g>
    </g>
</svg>