<?xml version="1.0" encoding="UTF-8"?>
<svg width="72px" height="112px" viewBox="0 0 72 112" version="1.1" xmlns="http://www.w3.org/2000/svg" xmlns:xlink="http://www.w3.org/1999/xlink">
    <title>5h</title>
    <g id="Page-1" stroke="none" stroke-width="1" fill="none" fill-rule="evenodd">
        <g id="Artboard" transform="translate(-384.000000, -160.000000)">
            <g id="card" transform="translate(384.000000, 160.000000)">
                <rect id="Rectangle" fill-opacity="0" fill="#FFFFFF" fill-rule="evenodd" x="1" y="0" width="71" height="112"></rect>
                <g id="rank/five" transform="translate(16.000000, 12.000000)" fill="#FF6464" fill-rule="nonzero">
                    <path d="M19.79875,39.6375 C27.90625,39.6375 34.57625,35.3825 34.57625,26.0675 C34.57625,19.3975 30.14875,14.5675 22.67375,14.5675 C19.28125,14.5675 16.40625,15.545 14.85375,17.27 L14.79625,17.27 C14.85375,17.0975 14.96875,16.6375 15.08375,15.89 L15.94625,8.76 L32.44875,8.76 L32.44875,1.1125 L8.75875,1.1125 L6.34375,22.56 L13.81875,23.6525 C15.14125,22.1 17.26875,21.41 19.85625,21.41 C23.70875,21.41 25.60625,23.365 25.66375,26.7575 C25.66375,30.3225 23.36375,32.1625 19.85625,32.1625 C15.77375,32.1625 14.33625,30.265 13.64625,27.1025 L4.96375,32.0475 C8.29875,37.5675 13.07125,39.6375 19.79875,39.6375 Z" id="Shape"></path>
                </g>
                <g id="suit/heart" transform="translate(14.000000, 60.000000)" fill-rule="nonzero">
                    <path d="M0,14.2385547 C0,7.53671875 5.40151563,2.10400781 12.0645078,2.10400781 C15.367,2.10400781 18.3571094,3.44059375 20.5345937,5.60364063 C21.3419766,6.40569531 22.6579375,6.40569531 23.4654063,5.60364063 C25.6428047,3.44059375 28.6329141,2.10400781 31.9354063,2.10400781 C38.5984844,2.10400781 44,7.53671875 44,14.2385547 L44,14.2385547 C44,26.77125 27.8619687,38.1723203 23.2295078,41.18675 C22.4806484,41.6741016 21.5193516,41.6741016 20.7704922,41.18675 C16.1380313,38.1722344 0,26.77125 0,14.2385547" id="Path" fill="#FF6464"></path>
                    <path d="M16.9710234,3.16267188 C15.4711562,2.48814844 13.8141953,2.10400781 12.0645078,2.10400781 C5.40151563,2.10400781 0,7.53671875 0,14.2385547 C0,26.7711641 16.1380313,38.1721484 20.7705781,41.18675 C21.1450938,41.4304688 21.5725469,41.5522422 22,41.5522422 C5.51297656,19.0470156 11.3793281,6.45304688 16.9710234,3.16267188 Z" id="Path" fill="#D2555A"></path>
                </g>
            </g>
        </g>
    </g>
</svg>