<?xml version="1.0" encoding="UTF-8"?>
<svg width="72px" height="112px" viewBox="0 0 72 112" version="1.1" xmlns="http://www.w3.org/2000/svg" xmlns:xlink="http://www.w3.org/1999/xlink">
    <title>6h</title>
    <g id="Page-1" stroke="none" stroke-width="1" fill="none" fill-rule="evenodd">
        <g id="Artboard" transform="translate(-472.000000, -160.000000)">
            <g id="card" transform="translate(472.000000, 160.000000)">
                <rect id="Rectangle" fill-opacity="0" fill="#FFFFFF" fill-rule="evenodd" x="1" y="0" width="71" height="112"></rect>
                <g id="rank/six" transform="translate(16.000000, 12.000000)" fill="#FF6464" fill-rule="nonzero">
                    <path d="M20.9775,39.6375 C30.235,39.6375 35.5825,34.8075 35.5825,27.2175 C35.5825,20.03 30.35,15.43 23.2775,15.43 C18.85,15.43 15.4,17.155 14.0775,20.4325 L13.9625,20.4325 L13.9625,19.5125 C13.9625,12.555 17.01,8.3575 21.2075,8.3575 C24.37,8.3575 26.21,10.025 26.9575,12.7275 L35.065,8.9325 C32.9375,2.78 27.935,0.5375 21.84,0.5375 C12.3525,0.5375 5.165,6.6325 5.165,20.0875 C5.165,32.8525 10.8575,39.6375 20.9775,39.6375 Z M21.15,32.22 C17.815,32.22 15.745,30.265 15.745,27.16 C15.745,24.055 17.815,22.1 21.15,22.1 C24.6,22.1 26.555,23.94 26.555,27.16 C26.555,30.38 24.6,32.22 21.15,32.22 Z" id="Shape"></path>
                </g>
                <g id="suit/heart" transform="translate(14.000000, 60.000000)" fill-rule="nonzero">
                    <path d="M0,14.2385547 C0,7.53671875 5.40151563,2.10400781 12.0645078,2.10400781 C15.367,2.10400781 18.3571094,3.44059375 20.5345937,5.60364063 C21.3419766,6.40569531 22.6579375,6.40569531 23.4654063,5.60364063 C25.6428047,3.44059375 28.6329141,2.10400781 31.9354063,2.10400781 C38.5984844,2.10400781 44,7.53671875 44,14.2385547 L44,14.2385547 C44,26.77125 27.8619687,38.1723203 23.2295078,41.18675 C22.4806484,41.6741016 21.5193516,41.6741016 20.7704922,41.18675 C16.1380313,38.1722344 0,26.77125 0,14.2385547" id="Path" fill="#FF6464"></path>
                    <path d="M16.9710234,3.16267188 C15.4711562,2.48814844 13.8141953,2.10400781 12.0645078,2.10400781 C5.40151563,2.10400781 0,7.53671875 0,14.2385547 C0,26.7711641 16.1380313,38.1721484 20.7705781,41.18675 C21.1450938,41.4304688 21.5725469,41.5522422 22,41.5522422 C5.51297656,19.0470156 11.3793281,6.45304688 16.9710234,3.16267188 Z" id="Path" fill="#D2555A"></path>
                </g>
            </g>
        </g>
    </g>
</svg>