<?xml version="1.0" encoding="UTF-8"?>
<svg width="72px" height="112px" viewBox="0 0 72 112" version="1.1" xmlns="http://www.w3.org/2000/svg" xmlns:xlink="http://www.w3.org/1999/xlink">
    <title>6s</title>
    <g id="Page-1" stroke="none" stroke-width="1" fill="none" fill-rule="evenodd">
        <g id="Artboard" transform="translate(-472.000000, -32.000000)">
            <g id="card" transform="translate(472.000000, 32.000000)">
                <rect id="Rectangle" fill-opacity="0" fill="#FFFFFF" fill-rule="evenodd" x="1" y="0" width="71" height="112"></rect>
                <g id="rank/six" transform="translate(16.000000, 12.000000)" fill="#515262" fill-rule="nonzero">
                    <path d="M20.9775,39.6375 C30.235,39.6375 35.5825,34.8075 35.5825,27.2175 C35.5825,20.03 30.35,15.43 23.2775,15.43 C18.85,15.43 15.4,17.155 14.0775,20.4325 L13.9625,20.4325 L13.9625,19.5125 C13.9625,12.555 17.01,8.3575 21.2075,8.3575 C24.37,8.3575 26.21,10.025 26.9575,12.7275 L35.065,8.9325 C32.9375,2.78 27.935,0.5375 21.84,0.5375 C12.3525,0.5375 5.165,6.6325 5.165,20.0875 C5.165,32.8525 10.8575,39.6375 20.9775,39.6375 Z M21.15,32.22 C17.815,32.22 15.745,30.265 15.745,27.16 C15.745,24.055 17.815,22.1 21.15,22.1 C24.6,22.1 26.555,23.94 26.555,27.16 C26.555,30.38 24.6,32.22 21.15,32.22 Z" id="Shape"></path>
                </g>
                <g id="suit/spade" transform="translate(14.000000, 60.000000)" fill-rule="nonzero">
                    <path d="M22.6708285,0.225403509 C22.1783372,-0.0750487329 21.5696277,-0.0750487329 21.0771365,0.225403509 C17.3057446,2.52609747 1.43117934,12.9190175 1.43117934,24.8506511 C1.43117934,31.0519064 6.45035283,36.0789708 12.6418304,36.0789708 C14.6683177,36.0789708 16.5676082,35.5390487 18.2068441,34.5960078 C18.6768635,34.325575 19.226306,34.8036569 19.0419864,35.3173333 C18.1674756,37.7534581 16.9293002,40.0132398 15.3915302,42.0283197 C14.8042632,42.7979337 15.3682865,43.9141442 16.3301111,43.9141442 L27.5366452,43.9141442 C28.4990702,43.9141442 29.0617212,42.7976764 28.4741969,42.0275478 C26.9541813,40.0351969 25.7268129,37.8038051 24.8541891,35.3993294 C24.6688402,34.8885692 25.2106491,34.4097154 25.6821267,34.6725146 C27.28877,35.5674386 29.1368558,36.0789708 31.106306,36.0789708 C37.2976979,36.0789708 42.3169571,31.0519064 42.3169571,24.8506511 C42.3169571,12.9190175 26.4422203,2.52609747 22.6708285,0.225403509 Z" id="Path" fill="#515262"></path>
                    <path d="M18.5997563,34.5335673 C20.4543606,34.5335673 20.4858382,36.2481949 19.7609103,42.274308 C19.6885205,42.8764133 19.7221423,43.9143158 20.5680916,43.9143158 L20.5680916,43.9143158 L16.3300253,43.9143158 C15.3682008,43.9143158 14.8041774,42.7981053 15.3914444,42.028577 C16.9291287,40.0133255 18.1673899,37.7535439 19.0419006,35.3174191 C19.1748441,34.9471501 18.9249103,34.5997817 18.5997563,34.5335673 Z M21.8282837,0.0108391813 L21.9843255,0.0150955166 C16.4794366,7.19284211 4.64909747,28.1088811 17.2443333,35.0830097 C15.8399357,35.719423 14.2839825,36.0789708 12.6418304,36.0789708 C6.45035283,36.0789708 1.43117934,31.0519064 1.43117934,24.8506511 C1.43117934,12.9190175 17.3057446,2.5260117 21.077308,0.225317739 C21.3566608,0.0547212476 21.6725517,-0.00789083821 21.9843255,0.0150955166 Z" id="Combined-Shape" fill="#464655"></path>
                </g>
            </g>
        </g>
    </g>
</svg>