<?xml version="1.0" encoding="UTF-8"?>
<svg width="72px" height="112px" viewBox="0 0 72 112" version="1.1" xmlns="http://www.w3.org/2000/svg" xmlns:xlink="http://www.w3.org/1999/xlink">
    <title>8c</title>
    <g id="Page-1" stroke="none" stroke-width="1" fill="none" fill-rule="evenodd">
        <g id="Artboard" transform="translate(-648.000000, -416.000000)">
            <g id="card" transform="translate(648.000000, 416.000000)">
                <rect id="Rectangle" fill-opacity="0" fill="#FFFFFF" fill-rule="evenodd" x="1" y="0" width="71" height="112"></rect>
                <g id="rank/eight" transform="translate(16.000000, 12.000000)" fill="#1DD1A1" fill-rule="nonzero">
                    <path d="M19.97125,39.6375 C29.63125,39.6375 35.43875,35.555 35.43875,29 C35.43875,24.285 32.73625,21.18 28.19375,19.685 L28.19375,19.6275 C32.04625,18.19 34.23125,15.2 34.23125,11.29 C34.23125,4.6775 28.76875,0.6525 19.97125,0.6525 C11.23125,0.6525 5.76875,4.6775 5.76875,11.29 C5.76875,15.2575 8.01125,18.19 11.80625,19.6275 L11.80625,19.685 C7.20625,21.18 4.56125,24.3425 4.56125,29 C4.56125,35.555 10.42625,39.6375 19.97125,39.6375 Z M19.97125,16.58 C16.92375,16.58 14.96875,14.9125 14.96875,12.21 C14.96875,9.45 16.86625,7.84 19.97125,7.84 C23.07625,7.84 25.03125,9.45 25.03125,12.21 C25.03125,14.9125 23.07625,16.58 19.97125,16.58 Z M19.97125,32.45 C16.34875,32.45 14.16375,30.6675 14.16375,27.735 C14.16375,24.745 16.40625,23.02 19.97125,23.02 C23.65125,23.02 25.83625,24.745 25.83625,27.735 C25.83625,30.6675 23.65125,32.45 19.97125,32.45 Z" id="Shape"></path>
                </g>
                <g id="suit/club-4c" transform="translate(14.000000, 60.000000)" fill-rule="nonzero">
                    <path d="M35.2482885,17.7228226 C31.4411306,17.5043665 28.1089669,19.6041014 26.510729,22.7375361 C26.1579571,23.429271 25.5696608,23.9728811 24.8323821,24.2168967 C24.8232047,24.2198986 24.8141131,24.2229864 24.8049357,24.2259883 C24.1780429,24.4326082 23.5516647,23.8981754 23.6499571,23.2454659 C23.8658402,21.8113918 24.2049747,20.4177154 24.6546667,19.0745575 C24.8988538,18.3450838 25.4327719,17.7596179 26.1186745,17.4114776 C29.2608577,15.816499 31.3679688,12.4795322 31.1492554,8.66594152 C30.8819961,4.00417154 27.0037349,0.195812865 22.3380195,0.00771929825 C17.0792904,-0.204389864 12.7492788,3.99610916 12.7492788,9.20775049 C12.7492788,12.7979961 14.8079298,15.900039 17.8065341,17.4170526 C18.486347,17.761076 19.0140039,18.3423392 19.2562183,19.064694 C19.7074542,20.4110253 20.0478752,21.807961 20.2642729,23.2454659 C20.3624795,23.8981754 19.7361871,24.4326082 19.1092943,24.2259883 C19.0998596,24.2229006 19.0903392,24.2197271 19.0809903,24.2166394 C18.3443119,23.9727953 17.7565302,23.4297856 17.4040156,22.7384795 C15.8060351,19.6045302 12.4735283,17.5044522 8.66611306,17.7229084 C4.00417154,17.9903392 0.195812865,21.8685146 0.00780506823,26.5343158 C-0.204132554,31.7930448 3.9962807,36.1229708 9.20792203,36.1229708 C12.7863314,36.1229708 15.879883,34.0777856 17.4022144,31.0951345 C17.7564444,30.4011696 18.3469708,29.8562729 19.0865653,29.6116569 C19.0951423,29.6088265 19.1038051,29.6059961 19.1123821,29.6031657 C19.7396179,29.3965458 20.3642807,29.9313216 20.2672749,30.5845458 C19.6172242,34.9588148 17.824117,38.9592982 15.2017856,42.2748226 C14.6772164,42.9380819 15.1630175,43.9141442 16.0087096,43.9141442 L27.905692,43.9141442 C28.751384,43.9141442 29.237271,42.9381676 28.712616,42.2748226 C26.0902846,38.9592982 24.2971774,34.9588148 23.6471267,30.5845458 C23.5500351,29.9313216 24.1747836,29.39646 24.8020195,29.6031657 C24.8105965,29.6059961 24.8192593,29.6088265 24.8278363,29.6116569 C25.5675166,29.8561871 26.1581287,30.4012554 26.5121871,31.0951345 C28.0345185,34.0776998 31.1279844,36.1229708 34.7064795,36.1229708 C39.9181209,36.1229708 44.1186199,31.7930448 43.9065965,26.5343158 C43.7185029,21.8686862 39.9100585,17.9903392 35.2482885,17.7228226 Z" id="Path" fill="#1DD1A1"></path>
                    <path d="M20.0321793,29.8483821 C22.0360234,31.102425 20.8534269,39.3332554 19.6837817,42.2749084 C19.3713216,43.0607329 19.6449279,43.9143158 20.4905341,43.9143158 L20.4905341,43.9143158 L16.008538,43.9143158 C15.162846,43.9143158 14.6770448,42.9382534 15.201614,42.2749942 C17.8239454,38.9594698 19.6170526,34.9589864 20.2671033,30.5847173 C20.3098168,30.2970448 20.0321793,29.8483821 20.0321793,29.8483821 Z M8.66594152,17.7228226 C9.92676023,17.6506043 11.1332865,17.8370682 12.2441793,18.2265497 C8.78104483,19.455462 6.22407018,22.7329045 6.07079922,26.5343158 C5.9020039,30.7218635 8.5351423,34.3124522 12.244694,35.6047485 C11.2940195,35.9380507 10.2731852,36.1229708 9.20783626,36.1229708 C3.99619493,36.1229708 -0.204218324,31.7930448 0.00771929825,26.5343158 C0.195727096,21.8685146 4.00408577,17.9903392 8.66594152,17.7228226 Z M30.7082261,32.7239064 C32.3262768,34.8719298 34.066807,35.7513294 36.2764133,35.9810214 C35.9386511,36.040117 35.5968577,36.0865185 35.2482885,36.1065887 C31.4411306,36.3250448 28.1089669,34.2253099 26.510729,31.0918752 C26.1579571,30.4000546 25.5696608,29.8565302 24.8323821,29.6125146 C24.8247342,29.610013 24.6845599,29.5745138 24.587072,29.5622538 L24.5351033,29.5581365 C24.5351033,29.5581365 27.964616,29.0815127 30.7082261,32.7239064 Z M22.0669391,0.000665844906 L22.3381053,0.00771929825 C23.257731,0.0448576998 24.1447641,0.227118908 24.9815361,0.524397661 C21.3915478,1.78101365 18.8123587,4.64401559 18.8123587,9.20783626 C18.8123587,10.8554776 19.4839376,13.7677973 19.9230799,15.2399532 C21.0425497,18.9926472 21.4756881,22.7558908 21.2002807,23.6124756 C20.9164678,24.4953918 19.5857466,24.3492398 19.3712359,24.2747057 L19.3712359,24.2747057 C19.8963197,24.2778791 20.3488421,23.8068304 20.2642729,23.2452943 C20.0478752,21.8078752 19.7076257,20.410768 19.2562183,19.0645224 C19.0140897,18.3421676 18.4865185,17.7609045 17.8065341,17.4168811 C17.6778791,17.3517817 17.5534269,17.2799922 17.4283743,17.2091462 L17.4283743,17.2091462 L17.1771729,17.0616531 C14.5248008,15.4476742 12.7492788,12.5397401 12.7492788,9.20766472 C12.7492788,3.99610916 17.0792047,-0.204389864 22.3381053,0.00771929825 Z M26.510729,22.7375361 C28.1089669,19.6041014 31.4411306,17.5043665 35.2482885,17.7228226 C35.5968577,17.7428928 35.9386511,17.7892943 36.2764133,17.8483899 C34.066807,18.0780819 32.3262768,18.9574815 30.7082261,21.1055049 C27.964616,24.7478986 24.5351033,24.2712749 24.5351033,24.2712749 L24.5351033,24.2712749 L24.587072,24.2671575 C24.6845599,24.2548976 24.8247342,24.2193983 24.8323821,24.2168967 C25.5696608,23.9728811 26.1579571,23.4293567 26.510729,22.7375361 Z" id="Combined-Shape" fill="#10AC84"></path>
                </g>
            </g>
        </g>
    </g>
</svg>