<?xml version="1.0" encoding="UTF-8"?>
<svg width="72px" height="112px" viewBox="0 0 72 112" version="1.1" xmlns="http://www.w3.org/2000/svg" xmlns:xlink="http://www.w3.org/1999/xlink">
    <title>8d</title>
    <g id="Page-1" stroke="none" stroke-width="1" fill="none" fill-rule="evenodd">
        <g id="Artboard" transform="translate(-648.000000, -288.000000)">
            <g id="card" transform="translate(648.000000, 288.000000)">
                <rect id="Rectangle" fill-opacity="0" fill="#FFFFFF" fill-rule="evenodd" x="1" y="0" width="71" height="112"></rect>
                <g id="rank/eight" transform="translate(16.000000, 12.000000)" fill="#54A0FF" fill-rule="nonzero">
                    <path d="M19.97125,39.6375 C29.63125,39.6375 35.43875,35.555 35.43875,29 C35.43875,24.285 32.73625,21.18 28.19375,19.685 L28.19375,19.6275 C32.04625,18.19 34.23125,15.2 34.23125,11.29 C34.23125,4.6775 28.76875,0.6525 19.97125,0.6525 C11.23125,0.6525 5.76875,4.6775 5.76875,11.29 C5.76875,15.2575 8.01125,18.19 11.80625,19.6275 L11.80625,19.685 C7.20625,21.18 4.56125,24.3425 4.56125,29 C4.56125,35.555 10.42625,39.6375 19.97125,39.6375 Z M19.97125,16.58 C16.92375,16.58 14.96875,14.9125 14.96875,12.21 C14.96875,9.45 16.86625,7.84 19.97125,7.84 C23.07625,7.84 25.03125,9.45 25.03125,12.21 C25.03125,14.9125 23.07625,16.58 19.97125,16.58 Z M19.97125,32.45 C16.34875,32.45 14.16375,30.6675 14.16375,27.735 C14.16375,24.745 16.40625,23.02 19.97125,23.02 C23.65125,23.02 25.83625,24.745 25.83625,27.735 C25.83625,30.6675 23.65125,32.45 19.97125,32.45 Z" id="Shape"></path>
                </g>
                <g id="suit/diamond-4c" transform="translate(14.000000, 60.000000)" fill-rule="nonzero">
                    <path d="M23.2338906,0.608695313 C28.5126875,7.43651562 36.5615938,15.4867109 43.3882109,20.7661953 C44.1995469,21.3937109 44.1995469,22.6062031 43.3882109,23.2336328 C36.5616797,28.5131172 28.5126016,36.5634844 23.2338906,43.3911328 C22.606375,44.2027266 21.3935391,44.2027266 20.7661094,43.3911328 C15.4873125,36.5634844 7.43832031,28.5132891 0.611703125,23.2337188 C-0.199632813,22.6062031 -0.199632813,21.3937109 0.611703125,20.7662813 C7.43832031,15.4867969 15.4873125,7.43651563 20.7660234,0.60878125 C21.3935391,-0.202898437 22.606375,-0.202898437 23.2338906,0.608695313 Z" id="Path" fill="#54A0FF"></path>
                    <path d="M21.8101641,43.3913047 C19.3755547,36.5635703 15.6633125,28.5132891 12.5148203,23.2338047 C12.1405625,22.6062891 12.1405625,21.3937969 12.5148203,20.7663672 C15.6633125,15.4867969 19.3755547,7.43651563 21.8101641,0.608867187 C21.9311641,0.269585937 22.1778906,0.120570312 22.3897266,0.054484375 C21.8135156,-0.09453125 21.1695,0.087140625 20.7660234,0.608867187 C15.4873125,7.43642969 7.43832031,15.4867109 0.611703125,20.7661953 C-0.199632813,21.3937109 -0.199632813,22.6061172 0.611703125,23.2336328 C7.43823438,28.5131172 15.4873125,36.5634844 20.7660234,43.3911328 C21.1693281,43.9127734 21.8134297,44.0945313 22.3897266,43.9455156 C22.1778047,43.8795156 21.9310781,43.7305 21.8101641,43.3913047 Z" id="Path" fill="#2E86DE"></path>
                </g>
            </g>
        </g>
    </g>
</svg>