<?xml version="1.0" encoding="UTF-8"?>
<svg width="72px" height="112px" viewBox="0 0 72 112" version="1.1" xmlns="http://www.w3.org/2000/svg" xmlns:xlink="http://www.w3.org/1999/xlink">
    <title>8h</title>
    <g id="Page-1" stroke="none" stroke-width="1" fill="none" fill-rule="evenodd">
        <g id="Artboard" transform="translate(-648.000000, -160.000000)">
            <g id="card" transform="translate(648.000000, 160.000000)">
                <rect id="Rectangle" fill-opacity="0" fill="#FFFFFF" fill-rule="evenodd" x="1" y="0" width="71" height="112"></rect>
                <g id="rank/eight" transform="translate(16.000000, 12.000000)" fill="#FF6464" fill-rule="nonzero">
                    <path d="M19.97125,39.6375 C29.63125,39.6375 35.43875,35.555 35.43875,29 C35.43875,24.285 32.73625,21.18 28.19375,19.685 L28.19375,19.6275 C32.04625,18.19 34.23125,15.2 34.23125,11.29 C34.23125,4.6775 28.76875,0.6525 19.97125,0.6525 C11.23125,0.6525 5.76875,4.6775 5.76875,11.29 C5.76875,15.2575 8.01125,18.19 11.80625,19.6275 L11.80625,19.685 C7.20625,21.18 4.56125,24.3425 4.56125,29 C4.56125,35.555 10.42625,39.6375 19.97125,39.6375 Z M19.97125,16.58 C16.92375,16.58 14.96875,14.9125 14.96875,12.21 C14.96875,9.45 16.86625,7.84 19.97125,7.84 C23.07625,7.84 25.03125,9.45 25.03125,12.21 C25.03125,14.9125 23.07625,16.58 19.97125,16.58 Z M19.97125,32.45 C16.34875,32.45 14.16375,30.6675 14.16375,27.735 C14.16375,24.745 16.40625,23.02 19.97125,23.02 C23.65125,23.02 25.83625,24.745 25.83625,27.735 C25.83625,30.6675 23.65125,32.45 19.97125,32.45 Z" id="Shape"></path>
                </g>
                <g id="suit/heart" transform="translate(14.000000, 60.000000)" fill-rule="nonzero">
                    <path d="M0,14.2385547 C0,7.53671875 5.40151563,2.10400781 12.0645078,2.10400781 C15.367,2.10400781 18.3571094,3.44059375 20.5345937,5.60364063 C21.3419766,6.40569531 22.6579375,6.40569531 23.4654063,5.60364063 C25.6428047,3.44059375 28.6329141,2.10400781 31.9354063,2.10400781 C38.5984844,2.10400781 44,7.53671875 44,14.2385547 L44,14.2385547 C44,26.77125 27.8619687,38.1723203 23.2295078,41.18675 C22.4806484,41.6741016 21.5193516,41.6741016 20.7704922,41.18675 C16.1380313,38.1722344 0,26.77125 0,14.2385547" id="Path" fill="#FF6464"></path>
                    <path d="M16.9710234,3.16267188 C15.4711562,2.48814844 13.8141953,2.10400781 12.0645078,2.10400781 C5.40151563,2.10400781 0,7.53671875 0,14.2385547 C0,26.7711641 16.1380313,38.1721484 20.7705781,41.18675 C21.1450938,41.4304688 21.5725469,41.5522422 22,41.5522422 C5.51297656,19.0470156 11.3793281,6.45304688 16.9710234,3.16267188 Z" id="Path" fill="#D2555A"></path>
                </g>
            </g>
        </g>
    </g>
</svg>