<?xml version="1.0" encoding="UTF-8"?>
<svg width="72px" height="112px" viewBox="0 0 72 112" version="1.1" xmlns="http://www.w3.org/2000/svg" xmlns:xlink="http://www.w3.org/1999/xlink">
    <title>8s</title>
    <g id="Page-1" stroke="none" stroke-width="1" fill="none" fill-rule="evenodd">
        <g id="Artboard" transform="translate(-648.000000, -32.000000)">
            <g id="card" transform="translate(648.000000, 32.000000)">
                <rect id="Rectangle" fill-opacity="0" fill="#FFFFFF" fill-rule="evenodd" x="1" y="0" width="71" height="112"></rect>
                <g id="rank/eight" transform="translate(16.000000, 12.000000)" fill="#515262" fill-rule="nonzero">
                    <path d="M19.97125,39.6375 C29.63125,39.6375 35.43875,35.555 35.43875,29 C35.43875,24.285 32.73625,21.18 28.19375,19.685 L28.19375,19.6275 C32.04625,18.19 34.23125,15.2 34.23125,11.29 C34.23125,4.6775 28.76875,0.6525 19.97125,0.6525 C11.23125,0.6525 5.76875,4.6775 5.76875,11.29 C5.76875,15.2575 8.01125,18.19 11.80625,19.6275 L11.80625,19.685 C7.20625,21.18 4.56125,24.3425 4.56125,29 C4.56125,35.555 10.42625,39.6375 19.97125,39.6375 Z M19.97125,16.58 C16.92375,16.58 14.96875,14.9125 14.96875,12.21 C14.96875,9.45 16.86625,7.84 19.97125,7.84 C23.07625,7.84 25.03125,9.45 25.03125,12.21 C25.03125,14.9125 23.07625,16.58 19.97125,16.58 Z M19.97125,32.45 C16.34875,32.45 14.16375,30.6675 14.16375,27.735 C14.16375,24.745 16.40625,23.02 19.97125,23.02 C23.65125,23.02 25.83625,24.745 25.83625,27.735 C25.83625,30.6675 23.65125,32.45 19.97125,32.45 Z" id="Shape"></path>
                </g>
                <g id="suit/spade" transform="translate(14.000000, 60.000000)" fill-rule="nonzero">
                    <path d="M22.6708285,0.225403509 C22.1783372,-0.0750487329 21.5696277,-0.0750487329 21.0771365,0.225403509 C17.3057446,2.52609747 1.43117934,12.9190175 1.43117934,24.8506511 C1.43117934,31.0519064 6.45035283,36.0789708 12.6418304,36.0789708 C14.6683177,36.0789708 16.5676082,35.5390487 18.2068441,34.5960078 C18.6768635,34.325575 19.226306,34.8036569 19.0419864,35.3173333 C18.1674756,37.7534581 16.9293002,40.0132398 15.3915302,42.0283197 C14.8042632,42.7979337 15.3682865,43.9141442 16.3301111,43.9141442 L27.5366452,43.9141442 C28.4990702,43.9141442 29.0617212,42.7976764 28.4741969,42.0275478 C26.9541813,40.0351969 25.7268129,37.8038051 24.8541891,35.3993294 C24.6688402,34.8885692 25.2106491,34.4097154 25.6821267,34.6725146 C27.28877,35.5674386 29.1368558,36.0789708 31.106306,36.0789708 C37.2976979,36.0789708 42.3169571,31.0519064 42.3169571,24.8506511 C42.3169571,12.9190175 26.4422203,2.52609747 22.6708285,0.225403509 Z" id="Path" fill="#515262"></path>
                    <path d="M18.5997563,34.5335673 C20.4543606,34.5335673 20.4858382,36.2481949 19.7609103,42.274308 C19.6885205,42.8764133 19.7221423,43.9143158 20.5680916,43.9143158 L20.5680916,43.9143158 L16.3300253,43.9143158 C15.3682008,43.9143158 14.8041774,42.7981053 15.3914444,42.028577 C16.9291287,40.0133255 18.1673899,37.7535439 19.0419006,35.3174191 C19.1748441,34.9471501 18.9249103,34.5997817 18.5997563,34.5335673 Z M21.8282837,0.0108391813 L21.9843255,0.0150955166 C16.4794366,7.19284211 4.64909747,28.1088811 17.2443333,35.0830097 C15.8399357,35.719423 14.2839825,36.0789708 12.6418304,36.0789708 C6.45035283,36.0789708 1.43117934,31.0519064 1.43117934,24.8506511 C1.43117934,12.9190175 17.3057446,2.5260117 21.077308,0.225317739 C21.3566608,0.0547212476 21.6725517,-0.00789083821 21.9843255,0.0150955166 Z" id="Combined-Shape" fill="#464655"></path>
                </g>
            </g>
        </g>
    </g>
</svg>