<?xml version="1.0" encoding="UTF-8"?>
<svg width="72px" height="112px" viewBox="0 0 72 112" version="1.1" xmlns="http://www.w3.org/2000/svg" xmlns:xlink="http://www.w3.org/1999/xlink">
    <title>9d</title>
    <g id="Page-1" stroke="none" stroke-width="1" fill="none" fill-rule="evenodd">
        <g id="Artboard" transform="translate(-736.000000, -288.000000)">
            <g id="card" transform="translate(736.000000, 288.000000)">
                <rect id="Rectangle" fill-opacity="0" fill="#FFFFFF" fill-rule="evenodd" x="1" y="0" width="71" height="112"></rect>
                <g id="rank/nine" transform="translate(16.000000, 12.000000)" fill="#54A0FF" fill-rule="nonzero">
                    <path d="M19.05125,39.6375 C29.05625,39.6375 35.15125,33.8875 35.15125,20.3175 C35.15125,7.3225 29.51625,0.5375 19.45375,0.5375 C10.08125,0.5375 4.67625,5.3675 4.67625,13.4175 C4.67625,20.7775 10.19625,25.4925 16.98125,25.4925 C21.12125,25.4925 25.03125,23.825 26.06625,20.49 L26.23875,20.49 L26.23875,21.41 C26.23875,28.31 24.05375,32.1625 19.22375,32.1625 C15.88875,32.1625 14.62375,30.495 13.99125,27.85 L5.13625,31.3575 C7.49375,37.1075 12.15125,39.6375 19.05125,39.6375 Z M19.16625,18.42 C15.71625,18.42 13.76125,16.58 13.76125,13.36 C13.76125,10.14 15.71625,8.3 19.16625,8.3 C22.55875,8.3 24.57125,10.255 24.57125,13.36 C24.57125,16.465 22.55875,18.42 19.16625,18.42 Z" id="Shape"></path>
                </g>
                <g id="suit/diamond-4c" transform="translate(14.000000, 60.000000)" fill-rule="nonzero">
                    <path d="M23.2338906,0.608695313 C28.5126875,7.43651562 36.5615938,15.4867109 43.3882109,20.7661953 C44.1995469,21.3937109 44.1995469,22.6062031 43.3882109,23.2336328 C36.5616797,28.5131172 28.5126016,36.5634844 23.2338906,43.3911328 C22.606375,44.2027266 21.3935391,44.2027266 20.7661094,43.3911328 C15.4873125,36.5634844 7.43832031,28.5132891 0.611703125,23.2337188 C-0.199632813,22.6062031 -0.199632813,21.3937109 0.611703125,20.7662813 C7.43832031,15.4867969 15.4873125,7.43651563 20.7660234,0.60878125 C21.3935391,-0.202898437 22.606375,-0.202898437 23.2338906,0.608695313 Z" id="Path" fill="#54A0FF"></path>
                    <path d="M21.8101641,43.3913047 C19.3755547,36.5635703 15.6633125,28.5132891 12.5148203,23.2338047 C12.1405625,22.6062891 12.1405625,21.3937969 12.5148203,20.7663672 C15.6633125,15.4867969 19.3755547,7.43651563 21.8101641,0.608867187 C21.9311641,0.269585937 22.1778906,0.120570312 22.3897266,0.054484375 C21.8135156,-0.09453125 21.1695,0.087140625 20.7660234,0.608867187 C15.4873125,7.43642969 7.43832031,15.4867109 0.611703125,20.7661953 C-0.199632813,21.3937109 -0.199632813,22.6061172 0.611703125,23.2336328 C7.43823438,28.5131172 15.4873125,36.5634844 20.7660234,43.3911328 C21.1693281,43.9127734 21.8134297,44.0945313 22.3897266,43.9455156 C22.1778047,43.8795156 21.9310781,43.7305 21.8101641,43.3913047 Z" id="Path" fill="#2E86DE"></path>
                </g>
            </g>
        </g>
    </g>
</svg>