<?xml version="1.0" encoding="UTF-8"?>
<svg width="72px" height="112px" viewBox="0 0 72 112" version="1.1" xmlns="http://www.w3.org/2000/svg" xmlns:xlink="http://www.w3.org/1999/xlink">
    <title>9h</title>
    <g id="Page-1" stroke="none" stroke-width="1" fill="none" fill-rule="evenodd">
        <g id="Artboard" transform="translate(-736.000000, -160.000000)">
            <g id="card" transform="translate(736.000000, 160.000000)">
                <rect id="Rectangle" fill-opacity="0" fill="#FFFFFF" fill-rule="evenodd" x="1" y="0" width="71" height="112"></rect>
                <g id="rank/nine" transform="translate(16.000000, 12.000000)" fill="#FF6464" fill-rule="nonzero">
                    <path d="M19.05125,39.6375 C29.05625,39.6375 35.15125,33.8875 35.15125,20.3175 C35.15125,7.3225 29.51625,0.5375 19.45375,0.5375 C10.08125,0.5375 4.67625,5.3675 4.67625,13.4175 C4.67625,20.7775 10.19625,25.4925 16.98125,25.4925 C21.12125,25.4925 25.03125,23.825 26.06625,20.49 L26.23875,20.49 L26.23875,21.41 C26.23875,28.31 24.05375,32.1625 19.22375,32.1625 C15.88875,32.1625 14.62375,30.495 13.99125,27.85 L5.13625,31.3575 C7.49375,37.1075 12.15125,39.6375 19.05125,39.6375 Z M19.16625,18.42 C15.71625,18.42 13.76125,16.58 13.76125,13.36 C13.76125,10.14 15.71625,8.3 19.16625,8.3 C22.55875,8.3 24.57125,10.255 24.57125,13.36 C24.57125,16.465 22.55875,18.42 19.16625,18.42 Z" id="Shape"></path>
                </g>
                <g id="suit/heart" transform="translate(14.000000, 60.000000)" fill-rule="nonzero">
                    <path d="M0,14.2385547 C0,7.53671875 5.40151563,2.10400781 12.0645078,2.10400781 C15.367,2.10400781 18.3571094,3.44059375 20.5345937,5.60364063 C21.3419766,6.40569531 22.6579375,6.40569531 23.4654063,5.60364063 C25.6428047,3.44059375 28.6329141,2.10400781 31.9354063,2.10400781 C38.5984844,2.10400781 44,7.53671875 44,14.2385547 L44,14.2385547 C44,26.77125 27.8619687,38.1723203 23.2295078,41.18675 C22.4806484,41.6741016 21.5193516,41.6741016 20.7704922,41.18675 C16.1380313,38.1722344 0,26.77125 0,14.2385547" id="Path" fill="#FF6464"></path>
                    <path d="M16.9710234,3.16267188 C15.4711562,2.48814844 13.8141953,2.10400781 12.0645078,2.10400781 C5.40151563,2.10400781 0,7.53671875 0,14.2385547 C0,26.7711641 16.1380313,38.1721484 20.7705781,41.18675 C21.1450938,41.4304688 21.5725469,41.5522422 22,41.5522422 C5.51297656,19.0470156 11.3793281,6.45304688 16.9710234,3.16267188 Z" id="Path" fill="#D2555A"></path>
                </g>
            </g>
        </g>
    </g>
</svg>