<?xml version="1.0" encoding="UTF-8"?>
<svg width="72px" height="112px" viewBox="0 0 72 112" version="1.1" xmlns="http://www.w3.org/2000/svg" xmlns:xlink="http://www.w3.org/1999/xlink">
    <title>Qh</title>
    <g id="Page-1" stroke="none" stroke-width="1" fill="none" fill-rule="evenodd">
        <g id="Artboard" transform="translate(-1000.000000, -160.000000)">
            <g id="card" transform="translate(1000.000000, 160.000000)">
                <rect id="Rectangle" fill-opacity="0" fill="#FFFFFF" fill-rule="evenodd" x="1" y="0" width="71" height="112"></rect>
                <g id="rank/queen" transform="translate(16.000000, 12.000000)" fill="#FF6464" fill-rule="nonzero">
                    <path d="M28.4775,48.60625 C32.8475,48.60625 36.2975,47.6227117 38.2525,45.9834811 L35.895,39.1533538 C34.3425,40.5193793 31.985,41.2843535 28.8225,41.2843535 C25.545,41.2843535 23.36,40.5740203 23.015,37.8419694 C32.7325,36.694508 38.54,30.0283038 38.54,19.4279462 C38.54,7.78940932 31.525,0.85 19.9675,0.85 C8.41,0.85 1.3375,7.78940932 1.3375,19.4279462 C1.3375,29.9190217 7.0875,36.585226 16.6325,37.7873284 C16.1725,44.4535326 20.37,48.60625 28.4775,48.60625 Z M19.9675,30.629355 C14.4475,30.629355 11.4575,26.8044837 11.4575,19.4279462 C11.4575,12.0514088 14.4475,8.22653747 19.9675,8.22653747 C25.43,8.22653747 28.42,12.0514088 28.42,19.4279462 C28.42,26.8044837 25.43,30.629355 19.9675,30.629355 Z" id="Shape"></path>
                </g>
                <g id="suit/heart" transform="translate(14.000000, 60.000000)" fill-rule="nonzero">
                    <path d="M0,14.2385547 C0,7.53671875 5.40151563,2.10400781 12.0645078,2.10400781 C15.367,2.10400781 18.3571094,3.44059375 20.5345937,5.60364063 C21.3419766,6.40569531 22.6579375,6.40569531 23.4654063,5.60364063 C25.6428047,3.44059375 28.6329141,2.10400781 31.9354063,2.10400781 C38.5984844,2.10400781 44,7.53671875 44,14.2385547 L44,14.2385547 C44,26.77125 27.8619687,38.1723203 23.2295078,41.18675 C22.4806484,41.6741016 21.5193516,41.6741016 20.7704922,41.18675 C16.1380313,38.1722344 0,26.77125 0,14.2385547" id="Path" fill="#FF6464"></path>
                    <path d="M16.9710234,3.16267188 C15.4711562,2.48814844 13.8141953,2.10400781 12.0645078,2.10400781 C5.40151563,2.10400781 0,7.53671875 0,14.2385547 C0,26.7711641 16.1380313,38.1721484 20.7705781,41.18675 C21.1450938,41.4304688 21.5725469,41.5522422 22,41.5522422 C5.51297656,19.0470156 11.3793281,6.45304688 16.9710234,3.16267188 Z" id="Path" fill="#D2555A"></path>
                </g>
            </g>
        </g>
    </g>
</svg>